<?xml version="1.0" standalone="no"?>
<!DOCTYPE svg PUBLIC "-//W3C//DTD SVG 20010904//EN"
 "http://www.w3.org/TR/2001/REC-SVG-20010904/DTD/svg10.dtd">
<svg version="1.0" xmlns="http://www.w3.org/2000/svg"
 width="225.000000pt" height="225.000000pt" viewBox="0 0 225.000000 225.000000"
 preserveAspectRatio="xMidYMid meet">

<g transform="translate(0.000000,225.000000) scale(0.100000,-0.100000)"
fill="#000000" stroke="none">
<path d="M1925 2243 c-200 -48 -427 -179 -598 -342 -232 -223 -418 -531 -536
-888 -32 -97 -64 -173 -87 -208 l-37 -55 -81 0 c-102 0 -155 -22 -179 -73 -9
-19 -17 -46 -17 -60 0 -34 40 -89 77 -107 22 -10 33 -22 33 -36 0 -18 -8 -23
-44 -28 -63 -10 -127 -56 -159 -115 -68 -124 -2 -282 134 -321 53 -16 466 -12
512 4 173 62 205 291 54 393 -26 17 -68 35 -92 39 -39 5 -45 10 -45 30 0 14 6
24 15 24 8 0 30 14 49 31 41 36 53 81 36 133 -17 54 -58 77 -145 85 l-74 6 26
41 c19 30 51 56 112 92 398 233 783 677 1050 1210 64 128 63 161 -4 145z m-81
-180 c-122 -229 -252 -425 -398 -599 -148 -177 -386 -393 -535 -487 -41 -25
-43 -28 65 123 220 310 437 572 672 812 113 115 163 172 159 183 -15 37 -50
13 -191 -129 -219 -222 -454 -503 -654 -783 -47 -67 -88 -121 -89 -119 -7 6
81 206 133 305 171 324 393 564 650 703 79 42 209 97 232 98 9 0 -8 -40 -44
-107z m-960 -1394 c29 -23 33 -54 10 -87 -15 -21 -20 -22 -214 -22 -194 0
-199 1 -214 22 -22 32 -20 55 9 83 24 25 26 25 203 25 166 0 181 -2 206 -21z
m-84 -194 l0 -25 -120 0 -120 0 0 25 0 25 120 0 120 0 0 -25z m133 -99 c71
-29 116 -117 96 -188 -13 -51 -63 -105 -107 -119 -23 -6 -121 -9 -264 -7 -212
3 -228 4 -255 24 -48 36 -73 82 -73 136 0 72 38 132 100 157 40 16 464 14 503
-3z"/>
<path d="M824 356 c-10 -27 2 -43 39 -50 42 -8 77 -44 86 -88 6 -27 12 -33 31
-33 34 0 37 33 10 90 -24 49 -70 83 -124 92 -27 4 -37 2 -42 -11z"/>
</g>
</svg>
